<?xml version="1.0" encoding="UTF-8"?>
<svg width="21.255mm" height="21.255mm" version="1.1" viewBox="0 0 21.255 21.255"
  xml:space="preserve" xmlns="http://www.w3.org/2000/svg">
  <g transform="matrix(.085621 0 0 .085621 -55.678 -2.2603)" style="fill:#f0581a">
    <path class="st1" d="m863.2 124.7c-11.632 12.502-15.14 33.069-32.857 39.26-13.941 7.7684-31.593 13.715-38.056 29.732-5.9074 11.911 9.6296 26.14 19.08 14.806 5.2936-0.57134-6.9036 6.9851 2.4628 6.8274 3.9457 0.0218 11.631-0.92193 11.236 2.0649 5.2848 0.0788 9.7472-2.8036 4.5303 2.3128-4.6056 11.719-19.646 5.0731-28.871 9.1629-5.1659 2.9323-22.579-1.4619-9.4364-4.4292 4.3017 1.2591 11.362-3.0939 3.2669-1.5219-6.4074-0.83211-17.713-0.30367-20.245-0.69986 1.5596-8.4137 23.821 0.25757 13.071-11.906-6.9889-6.1258-17.401-5.062-24.275-11.432 1.7644-6.6942-14.865-2.955-9.7303-11.884-4.4554 0.36242-9.9586 0.80993-8.7929-1.3966-7.2263 4.5653-16.468 5.35-24.852 9.546-11.997 4.7726-24.196 9.4936-34.579 17.288-10.116 6.2165-21.979 10.786-29.098-0.75113-15.358-0.79695 4.1418-11.312 9.9391-13.39 4.0238-1.7969 16.016-7.8953 13.398-7.5794-4.4631 3.5126-14.187 3.9992-5.8385-2.4598 4.7969-5.3353 15.817-6.1894 17.247-13.517-9.6454 0.21054-24.871 8.5508-30.759 4.3684 4.9624-12.354 22.042-10.901 31.22-19.318 10.914-3.5333 15.846-14.082 24.386-20.494 10.422-6.8493 25.294-6.9956 32.483-18.325 6.5257-11.4 19.149-11.717 30.4-13.328 14.212-3.8521 28.584-8.15 43.466-7.4532 13.801-2.3211 19.939-19.891 34.868-19.207 12.205-1.2637 22.8-10.904 35.236-9.6526 11.646 4.7741-8.7491 6.4121-11.777 10.571-7.0328 2.0968-12.431 13.885-0.82797 11.357 5.7787-0.26786 19.664 0.84101 19.008 5.5908-12.392 1.531-27.576 4.6139-30.199 19.227-1.1996 2.5302-2.7591 5.0095-5.1052 6.6307zm-46.4 94.7c-3.5466 4.698-10.232-1.491-1.9767-0.27465zm6.5 0.2c-3.6322-1.6758-2.9076 3.9425 0 0z" style="clip-rule:evenodd;fill-rule:evenodd;fill:#f0581a"/>
  </g>
</svg>